HIERARCHY
ROOT Hips
{
	OFFSET -0.001795 -0.223333 0.028219
	CHANNELS 6 Xposition Yposition Zposition Zrotation Yrotation Xrotation 
	JOINT LeftUpLeg
	{
		OFFSET 0.069520 -0.091406 -0.006815
		CHANNELS 3 Zrotation Yrotation Xrotation
		JOINT LeftLeg
		{
			OFFSET 0.034277 -0.375199 -0.004496
			CHANNELS 3 Zrotation Yrotation Xrotation
			JOINT LeftFoot
			{
				OFFSET -0.013596 -0.397961 -0.043693
				CHANNELS 3 Zrotation Yrotation Xrotation
				JOINT LeftToe
				{
					OFFSET 0.026358 -0.055791 0.119288
					CHANNELS 3 Zrotation Yrotation Xrotation
					End Site
					{
						OFFSET 0.000000 0.000000 0.000000
					}
				}
			}
		}
	}
	JOINT RightUpLeg
	{
		OFFSET -0.067670 -0.090522 -0.004320
		CHANNELS 3 Zrotation Yrotation Xrotation
		JOINT RightLeg
		{
			OFFSET -0.038290 -0.382569 -0.008850
			CHANNELS 3 Zrotation Yrotation Xrotation
			JOINT RightFoot
			{
				OFFSET 0.015774 -0.398415 -0.042312
				CHANNELS 3 Zrotation Yrotation Xrotation
				JOINT RightToe
				{
					OFFSET -0.025372 -0.048144 0.123348
					CHANNELS 3 Zrotation Yrotation Xrotation
					End Site
					{
						OFFSET 0.000000 0.000000 0.000000
					}
				}
			}
		}
	}
	JOINT Spine
	{
		OFFSET -0.002533 0.108963 -0.026696
		CHANNELS 3 Zrotation Yrotation Xrotation
		JOINT Spine1
		{
			OFFSET 0.005487 0.135180 0.001092
			CHANNELS 3 Zrotation Yrotation Xrotation
			JOINT Spine2
			{
				OFFSET 0.001457 0.052922 0.025425
				CHANNELS 3 Zrotation Yrotation Xrotation
				JOINT Neck
				{
					OFFSET -0.002778 0.213870 -0.042857
					CHANNELS 3 Zrotation Yrotation Xrotation
					JOINT Head
					{
						OFFSET 0.005152 0.064970 0.051349
						CHANNELS 3 Zrotation Yrotation Xrotation
						End Site
						{
							OFFSET 0.000000 0.000000 0.000000
						}
					}
				}
				JOINT LeftShoulder
				{
					OFFSET 0.078845 0.121749 -0.034090
					CHANNELS 3 Zrotation Yrotation Xrotation
					JOINT LeftArm
					{
						OFFSET 0.090977 0.030469 -0.008868
						CHANNELS 3 Zrotation Yrotation Xrotation
						JOINT LeftForeArm
						{
							OFFSET 0.259612 -0.012772 -0.027456
							CHANNELS 3 Zrotation Yrotation Xrotation
							JOINT LeftHand
							{
								OFFSET 0.249234 0.008986 -0.001171
								CHANNELS 3 Zrotation Yrotation Xrotation
								End Site
								{
									OFFSET 0.000000 0.000000 0.000000
								}
							}
						}
					}
				}
				JOINT RightShoulder
				{
					OFFSET -0.081759 0.118833 -0.038615
					CHANNELS 3 Zrotation Yrotation Xrotation
					JOINT RightArm
					{
						OFFSET -0.096012 0.032551 -0.009143
						CHANNELS 3 Zrotation Yrotation Xrotation
						JOINT RightForeArm
						{
							OFFSET -0.253742 -0.013329 -0.021401
							CHANNELS 3 Zrotation Yrotation Xrotation
							JOINT RightHand
							{
								OFFSET -0.255298 0.007772 -0.005559
								CHANNELS 3 Zrotation Yrotation Xrotation
								End Site
								{
									OFFSET 0.000000 0.000000 0.000000
								}
							}
						}
					}
				}
			}
		}
	}
}
MOTION
Frames: 7
Frame Time: 0.050000
0.000000 0.948707 0.000000 -2.168427 -2.575765 0.779232 8.178999 0.032262 4.123278 -2.345223 0.360622 -6.547368 -0.316528 -0.126246 1.247874 0.000000 0.000000 0.000000 -3.614556 -0.017729 1.900459 1.885375 -0.270431 -3.554219 -10.782422 -24.226075 18.388610 0.000000 0.000000 0.000000 -2.857440 -0.023688 3.435565 5.687314 -0.810905 -24.105011 -0.441788 1.825776 27.726605 -0.106659 1.609847 -24.518495 0.000000 0.000000 0.000000 -30.399738 0.297366 -2.232558 -50.664024 -5.186883 -6.300190 -8.130155 -26.068417 3.276861 0.000000 0.000000 0.000000 21.916052 5.471329 2.039597 59.246385 0.516429 -8.219614 3.145942 28.504290 2.171880 0.000000 0.000000 0.000000 
0.000130 0.948088 0.000016 -2.443724 -3.322085 1.115334 8.497504 0.038818 4.378933 -2.520665 0.387510 -7.318577 -0.035815 0.493104 1.357526 0.000000 0.000000 0.000000 -3.392260 0.020980 1.298647 1.902650 -0.262669 -3.300100 -10.422815 -23.771325 17.988505 0.000000 0.000000 0.000000 -2.718015 -0.016310 2.847010 5.357212 -0.800597 -23.374238 -0.086434 2.586479 26.953457 -0.475118 1.902307 -24.723475 0.000000 0.000000 0.000000 -30.371414 1.104887 -2.943910 -50.736601 -5.360200 -6.124909 -9.113312 -26.037711 3.482809 0.000000 0.000000 0.000000 21.684962 5.183647 1.915531 60.142446 -0.625838 -8.803141 3.289418 30.597247 2.421276 0.000000 0.000000 0.000000 
0.000278 0.947724 -0.000036 -2.111217 -3.373816 0.982963 8.474609 0.028855 3.647313 -3.141205 0.406926 -5.794395 0.081105 0.506889 0.795339 0.000000 0.000000 0.000000 -3.681756 0.045949 1.113607 1.741638 -0.238759 -2.759371 -10.462705 -23.848366 17.708024 0.000000 0.000000 0.000000 -2.687473 -0.017007 2.785315 4.960576 -0.667598 -23.874157 0.047207 2.627047 27.565927 -0.134809 1.687519 -24.610969 0.000000 0.000000 0.000000 -30.155683 0.702174 -2.595912 -50.283505 -5.402184 -6.147183 -9.196134 -26.130861 3.521155 0.000000 0.000000 0.000000 22.048445 5.754170 2.242335 59.650658 -0.862500 -8.905157 2.740600 29.842543 2.193460 0.000000 0.000000 0.000000 
0.000357 0.947351 -0.000051 -2.220196 -3.659013 1.126910 8.745435 0.023827 3.599736 -3.466667 0.431419 -5.862292 0.201183 0.732833 0.733951 0.000000 0.000000 0.000000 -3.598812 0.073788 0.687832 1.756609 -0.228996 -2.343730 -10.353170 -23.717425 17.466579 0.000000 0.000000 0.000000 -2.977255 0.006482 2.081924 5.224796 -0.755720 -23.583835 0.100885 2.363596 27.529399 -0.077399 1.536497 -23.790323 0.000000 0.000000 0.000000 -30.453186 1.200408 -2.799589 -49.937724 -5.149178 -6.236936 -10.054005 -26.445787 3.790071 0.000000 0.000000 0.000000 21.843243 6.373936 2.463385 59.965383 -1.308370 -9.134062 2.486913 30.778796 2.188720 0.000000 0.000000 0.000000 
0.000348 0.947615 -0.000054 -2.109294 -3.342475 0.809267 8.868246 0.013450 3.396908 -3.829848 0.450954 -5.028700 0.090990 0.418037 0.528442 0.000000 0.000000 0.000000 -3.771123 0.053993 1.023690 1.891178 -0.238738 -2.251140 -10.502737 -23.912007 17.576724 0.000000 0.000000 0.000000 -3.084932 0.003770 2.285942 5.380225 -0.847123 -22.852414 -0.043015 2.488194 26.917866 -0.052392 1.547966 -23.152085 0.000000 0.000000 0.000000 -29.907259 0.960005 -2.752373 -49.854361 -4.748285 -6.277302 -11.220300 -27.390373 4.188263 0.000000 0.000000 0.000000 21.861940 6.022447 2.338780 59.793380 -1.454228 -9.127312 3.620531 30.941726 2.502566 0.000000 0.000000 0.000000 
0.000410 0.947626 -0.000091 -2.085118 -3.123853 0.774033 9.145022 -0.001652 3.354778 -4.330980 0.485877 -4.977534 -0.025410 0.185908 0.560210 0.000000 0.000000 0.000000 -3.787966 0.042017 1.185541 1.898711 -0.244064 -2.420644 -10.606900 -24.046160 17.688626 0.000000 0.000000 0.000000 -3.494479 0.020067 1.997742 5.666358 -0.912182 -22.873818 0.026014 2.150559 27.237554 0.335802 1.260200 -22.998439 0.000000 0.000000 0.000000 -29.750682 1.291324 -2.870869 -49.702609 -4.711167 -6.325567 -11.987828 -27.658007 4.440193 0.000000 0.000000 0.000000 21.502566 6.183561 2.383639 59.711711 -1.505019 -9.164460 3.607384 31.281721 2.521987 0.000000 0.000000 0.000000 
0.000458 0.947385 -0.000220 -2.136799 -3.091850 0.594636 9.166990 -0.001425 3.259268 -4.260706 0.481176 -4.480432 0.015671 0.161356 0.296601 0.000000 0.000000 0.000000 -3.733964 0.033252 1.257429 1.900271 -0.239457 -2.195755 -10.632219 -24.086557 17.593696 0.000000 0.000000 0.000000 -3.528772 0.018412 2.056673 5.636264 -0.930960 -22.555282 0.047798 2.027057 27.194714 0.682098 1.015468 -22.822340 0.000000 0.000000 0.000000 -29.458094 1.418603 -2.882994 -49.621927 -4.466249 -6.421591 -12.700127 -28.254464 4.733820 0.000000 0.000000 0.000000 21.247258 6.228523 2.377307 59.741178 -1.424861 -9.122861 3.962560 31.705541 2.652153 0.000000 0.000000 0.000000 
